<?xml version="1.0" encoding="UTF-8"?>
<svg id="Layer_2" xmlns="http://www.w3.org/2000/svg" viewBox="0 0 566.42 430.76">
  <defs>
    <style>
      .cls-1 {
        fill: #1d1d1b;
      }
    </style>
  </defs>
  <g id="Layer_1-2" data-name="Layer_1">
    <g>
      <path class="cls-1" d="M442.66,245.64v185.12c-61.15-58.14-132.5-126.54-194.43-185.46,16.05,0,36.23,0,50.78-.06,30.66,29.49,69.51,67.11,98.67,94.93,3.9,3.73,8.25,6.97,13.32,11.2,2.9-35.84,1.12-70.68,2.23-105.74h29.43Z"/>
      <path class="cls-1" d="M487.82,223.32h-119.85c9.37-9.87,17.17-18.1,23.52-24.83h96.32c-.06,8.46,0,19.41,0,24.83Z"/>
      <path class="cls-1" d="M49.17,224.93c-7.83.02-14.03-6.22-13.98-14.05.05-7.59,6.26-13.84,13.81-13.9,7.61-.06,14.21,6.57,14.09,14.14-.12,7.57-6.39,13.79-13.92,13.81Z"/>
      <path class="cls-1" d="M531.24,211.5c-.08,7.75-6.51,13.93-14.3,13.76-7.5-.16-13.82-6.67-13.69-14.08.13-7.5,6.52-13.82,13.99-13.86,7.63-.04,14.07,6.49,14,14.17Z"/>
      <path class="cls-1" d="M555.98,220.62c-5.63-.06-10.18-4.74-9.96-10.23.22-5.59,4.87-9.98,10.46-9.86,5.56.12,10.11,4.86,9.93,10.35-.18,5.67-4.61,9.8-10.43,9.73Z"/>
      <path class="cls-1" d="M10.29,221.01c-5.8.05-10.2-4.16-10.29-9.84-.09-5.57,4.38-10.17,9.99-10.27,5.63-.1,10.18,4.32,10.27,9.96.09,5.69-4.25,10.11-9.97,10.15Z"/>
      <path class="cls-1" d="M381.08,0v6h7.75c5.18,0,10.2,1.28,14.94,3.89,3.34,1.94,5.57,4.22,6.63,6.94,1.39,3.55,2.12,10.88,2.12,21.94v137.89h31.11V38.76c0-13.11,1.39-21.38,4.07-24.88,4.12-5.28,10.65-7.89,19.62-7.89h7.97V0h-94.21Z"/>
      <path class="cls-1" d="M367.35,177.43c-18.12,26.98-43.93,42.14-76.59,44.59-10.09.72-20.24.78-30.38.84-29.6.17-59.2.28-88.85.39h-1.5c-14.49.06-28.99.11-43.48.22h-1.51c-13.77.06-27.54.11-41.31.17h-4.68v-25.59h92.48c31.89,0,63.77,0,95.71-.06,23.19,0,44.32-6.02,61.54-22.58,15.27-14.66,22.74-32.55,23.8-53.68,2.01-38.18-20.57-66.95-45.54-80.27-3.68-2.01-7.41-3.62-11.15-4.91-9.14-3.18-19.12-5.24-28.76-5.52-9.03-.28-18.06-.45-27.09-.61-22.85-.39-45.65-.45-68.51-.67h-1.5c-2.06,0-4.18-.06-6.24-.06-1.06,0-4.73.17-6.07.28l.02,112.07c30.19,0,34.56,23.74,45.41,34.59h-76.48v-5.3c-.06-29.38,0-58.81-.11-88.19v-26.92c0-1.23,0-2.45-.06-3.68,0-1.17,0-2.29-.06-3.46-.45-15.83-2.51-25.86-6.24-30.1-6.08-6.86-15.11-10.31-27.15-10.31h-11.93V0h21.29c2.79,0,5.52.06,8.25.11,32.67.06,65.28.06,97.94.11h1.56c13.27,0,26.53,0,39.8.06,20.9.06,41.58,1.95,60.98,10.59,29.71,13.27,53.51,33.06,64.94,64.33,12.76,35.12,13.15,70.01-8.53,102.23Z"/>
      <path class="cls-1" d="M189.15,422.57v-6.02h-7.75c-5.18,0-10.2-1.28-14.94-3.9-3.34-1.95-5.57-4.24-6.63-6.97-1.39-3.57-2.12-10.93-2.12-22.02v-138.41h-31.11v138.41c0,13.16-1.39,21.46-4.07,24.97-4.12,5.3-10.65,7.92-19.62,7.92h-7.97v6.02h94.21Z"/>
      <path class="cls-1" d="M282.6,416.55c-5.18,0-10.2-1.28-14.94-3.9-3.34-1.95-5.57-4.24-6.63-6.97-1.39-3.57-2.12-10.93-2.12-22.02v-102.51c-.45-.22-31.1-26.22-31.1-26.22v128.73c0,13.16-1.39,21.46-4.07,24.97-4.13,5.3-10.65,7.92-19.62,7.92h-7.97v6.02h94.21v-6.02h-7.75Z"/>
      <rect class="cls-1" x="227.95" y="50.59" width="30.95" height="126.06"/>
    </g>
  </g>
</svg>